# xmcd
#
# Track frame offsets:
#	150
#	5575
#	12408
#	17110
#	24831
#
# Disc length: 418 seconds
#
# Revision: 1
# Processed by: cddbd v1.5PL3 Copyright (c) Steve Scherf et al.
# Submitted via: EasyCDDAExtractor 5.0.7
#
DISCID=2c01a005
DTITLE=Various Artist - 805 Boot Boys EP
DYEAR=2004
DGENRE=Punk
TTITLE0=James and the Mexicans - Just Shut Up
TTITLE1=In the 805
TTITLE2=Gonna be a Riot
TTITLE3=Boot Boys Stick Together
TTITLE4=Fuck the Police
EXTD=
EXTT0=
EXTT1=
EXTT2=
EXTT3=
EXTT4=
PLAYORDER=
